<?xml version="1.0" encoding="UTF-8"?>
<svg width="32px" height="32px" viewBox="0 0 32 32" version="1.1" xmlns="http://www.w3.org/2000/svg" xmlns:xlink="http://www.w3.org/1999/xlink">
    <title>Favicon</title>
    <defs>
        <linearGradient x1="0%" y1="0%" x2="100%" y2="100%" id="linearGradient-1">
            <stop stop-color="#3B82F6" offset="0%"></stop>
            <stop stop-color="#2563EB" offset="100%"></stop>
        </linearGradient>
    </defs>
    <g id="Favicon" stroke="none" stroke-width="1" fill="none" fill-rule="evenodd">
        <rect id="Background" fill="url(#linearGradient-1)" x="0" y="0" width="32" height="32" rx="8"></rect>
        <path d="M9,8 L23,8 C23.5522847,8 24,8.44771525 24,9 L24,23 C24,23.5522847 23.5522847,24 23,24 L9,24 C8.44771525,24 8,23.5522847 8,23 L8,9 C8,8.44771525 8.44771525,8 9,8 Z" id="Document" stroke="#FFFFFF" stroke-width="2"></path>
        <rect id="Line1" fill="#FFFFFF" x="12" y="12" width="8" height="2" rx="1"></rect>
        <rect id="Line2" fill="#FFFFFF" x="12" y="16" width="8" height="2" rx="1"></rect>
        <rect id="Line3" fill="#FFFFFF" x="12" y="20" width="8" height="2" rx="1"></rect>
    </g>
</svg>
